<svg width="20" height="20" fill="none" xmlns="http://www.w3.org/2000/svg"><g opacity=".5" clip-path="url(#clip0)"><path d="M18.895.001H1.104C.494.001 0 .478 0 1.067v17.178c0 .589.495 1.066 1.104 1.066h9.578v-7.478H8.076V8.918h2.606V6.77c0-2.494 1.577-3.852 3.881-3.852 1.105 0 2.053.08 2.329.114v2.607h-1.598c-1.253 0-1.495.575-1.495 1.419v1.86h2.99l-.392 2.915H13.8v7.478h5.096c.61 0 1.104-.478 1.104-1.065V1.066c0-.588-.494-1.065-1.104-1.065z" fill="#1E1B1B"/></g><defs><clipPath id="clip0"><path fill="#fff" d="M0 0h20v19.31H0z"/></clipPath></defs></svg>