<svg width="20" height="21" fill="none" xmlns="http://www.w3.org/2000/svg"><g opacity=".5" clip-path="url(#clip0)" fill="#1E1B1B"><path d="M19.98 6.064c-.046-1.096-.218-1.85-.464-2.502a5.051 5.051 0 00-1.157-1.83 4.91 4.91 0 00-1.77-1.188c-.637-.254-1.363-.431-2.426-.48C13.093.013 12.753 0 10.037 0 7.322 0 6.982.012 5.915.06 4.853.11 4.122.286 3.49.54a4.868 4.868 0 00-1.774 1.193A5.096 5.096 0 00.563 3.558C.316 4.215.145 4.964.098 6.06.047 7.164.035 7.514.035 10.315c0 2.8.012 3.15.059 4.25.047 1.096.219 1.85.465 2.502a5.104 5.104 0 001.156 1.83c.5.523 1.106.93 1.77 1.188.637.254 1.364.431 2.426.48 1.067.048 1.407.06 4.122.06 2.716 0 3.056-.012 4.122-.06 1.063-.049 1.793-.226 2.426-.48a5.198 5.198 0 002.927-3.018c.246-.656.418-1.406.465-2.502.047-1.1.058-1.45.058-4.25s-.004-3.151-.05-4.251zm-1.8 8.42c-.044 1.008-.208 1.552-.344 1.914a3.372 3.372 0 01-1.9 1.959c-.35.14-.882.31-1.855.354-1.055.049-1.371.06-4.04.06-2.668 0-2.989-.011-4.04-.06-.977-.044-1.504-.213-1.856-.354a3.071 3.071 0 01-1.148-.77 3.219 3.219 0 01-.747-1.184c-.136-.363-.3-.911-.343-1.914-.047-1.088-.059-1.415-.059-4.167 0-2.751.012-3.082.059-4.165.043-1.008.207-1.552.343-1.914.16-.448.415-.854.75-1.185a3.097 3.097 0 011.15-.77c.35-.14.882-.31 1.855-.354 1.055-.048 1.372-.06 4.04-.06 2.672 0 2.989.012 4.04.06.977.044 1.504.214 1.856.355a3.07 3.07 0 011.148.769c.332.334.586.737.747 1.185.136.362.3.91.343 1.914.047 1.087.059 1.414.059 4.165 0 2.753-.012 3.075-.059 4.163z"/><path d="M10.037 5.016c-2.836 0-5.138 2.373-5.138 5.298s2.302 5.298 5.138 5.298c2.837 0 5.138-2.373 5.138-5.298s-2.301-5.298-5.138-5.298zm0 8.735c-1.84 0-3.333-1.54-3.333-3.437 0-1.898 1.493-3.437 3.333-3.437s3.333 1.54 3.333 3.437c0 1.898-1.493 3.437-3.333 3.437zm6.541-8.944c0 .683-.537 1.237-1.2 1.237-.662 0-1.2-.554-1.2-1.237s.538-1.237 1.2-1.237c.663 0 1.2.554 1.2 1.237z"/></g><defs><clipPath id="clip0"><path fill="#fff" d="M0 0h20v20.625H0z"/></clipPath></defs></svg>