<svg width="19" height="19" fill="none" xmlns="http://www.w3.org/2000/svg"><path d="M13.656 19a5.292 5.292 0 01-1.816-.325 19.365 19.365 0 01-7.033-4.482A19.365 19.365 0 01.325 7.161a5.255 5.255 0 01-.268-2.583A5.38 5.38 0 012.827.633 5.29 5.29 0 015.36 0c.28 0 .522.196.58.47l.932 4.348a.594.594 0 01-.16.545L5.118 6.955a15.628 15.628 0 006.927 6.926l1.592-1.592a.594.594 0 01.544-.16l4.35.931c.273.059.468.3.468.58 0 .9-.212 1.753-.632 2.534A5.378 5.378 0 0113.656 19zM4.886 1.213a4.112 4.112 0 00-2.942 1.753 4.09 4.09 0 00-.503 3.79 18.008 18.008 0 0010.804 10.803 4.09 4.09 0 003.79-.503 4.112 4.112 0 001.752-2.94l-3.538-.759-1.663 1.663a.594.594 0 01-.672.118 16.812 16.812 0 01-8.051-8.051.594.594 0 01.117-.673l1.663-1.663-.758-3.538z" fill="#fff"/></svg>