<svg width="44" height="44" fill="none" xmlns="http://www.w3.org/2000/svg"><g clip-path="url(#clip0)" fill="#fff"><path d="M39.102 19.885a9.072 9.072 0 00-17.528-3.287A10.41 10.41 0 0010.2 22.192 7.676 7.676 0 108.399 37.33H30.03a6.269 6.269 0 005.094-9.942 9.072 9.072 0 003.977-7.503zm-9.071 16.05H8.399a6.28 6.28 0 111.967-12.247.698.698 0 00.858-.388 9.072 9.072 0 0117.327 2.319c.053.38.402.646.782.596a4.885 4.885 0 11.698 9.72zm4.133-9.602a6.247 6.247 0 00-4.133-1.564c-.07 0-.14 0-.21.005a10.519 10.519 0 00-6.893-7.811 7.676 7.676 0 1111.235 9.37zm9.126-7.147h-2.792a.698.698 0 100 1.396h2.791a.698.698 0 000-1.396zm-13.26-9.071a.698.698 0 00.698-.698v-2.79a.698.698 0 00-1.396 0v2.79c0 .386.313.698.698.698z"/><path d="M37.417 13.195a.698.698 0 00.493-.204l1.974-1.974a.698.698 0 10-.987-.986l-1.973 1.973a.698.698 0 00.493 1.191zm.493 13.583a.697.697 0 00-.986.987l1.973 1.973a.698.698 0 00.987-.987l-1.973-1.973zM22.151 12.99a.697.697 0 10.987-.986l-1.974-1.973a.698.698 0 10-.987.986l1.974 1.974z"/></g><defs><clipPath id="clip0"><path fill="#fff" transform="translate(.726)" d="M0 0h43.261v43.261H0z"/></clipPath></defs></svg>