<svg width="25" height="25" fill="none" xmlns="http://www.w3.org/2000/svg"><g clip-path="url(#clip0)" fill="#fff"><path d="M22.177 11.491a5.243 5.243 0 00-10.13-1.9 6.016 6.016 0 00-6.572 3.233 4.436 4.436 0 10-1.041 8.749h12.5a3.623 3.623 0 002.945-5.746 5.242 5.242 0 002.298-4.336zm-5.242 9.275H4.434a3.63 3.63 0 111.137-7.077.403.403 0 00.496-.224 5.243 5.243 0 0110.013 1.34c.03.22.232.373.452.344a2.823 2.823 0 11.403 5.617zm2.388-5.548a3.61 3.61 0 00-2.388-.904c-.04 0-.08 0-.121.002a6.079 6.079 0 00-3.983-4.513 4.436 4.436 0 116.492 5.415zm5.273-4.131h-1.613a.403.403 0 100 .807h1.613a.403.403 0 000-.807zm-7.662-5.242c.223 0 .404-.18.404-.403V3.83a.403.403 0 00-.807 0v1.613c0 .223.18.403.404.403z"/><path d="M21.203 7.625a.4.4 0 00.285-.118l1.14-1.14a.403.403 0 10-.57-.57l-1.14 1.14a.403.403 0 00.285.688zm.286 7.85a.403.403 0 00-.57.57l1.14 1.14a.403.403 0 00.57-.57l-1.14-1.14zm-9.108-7.968a.403.403 0 10.57-.57l-1.14-1.14a.403.403 0 10-.57.57l1.14 1.14z"/></g><defs><clipPath id="clip0"><path fill="#fff" d="M0 0h25v25H0z"/></clipPath></defs></svg>