<svg width="20" height="20" fill="none" xmlns="http://www.w3.org/2000/svg"><g opacity=".5" clip-path="url(#clip0)" fill-rule="evenodd" clip-rule="evenodd"><path d="M9.89 0C5.768 0 2.912.014 1.446 1.446.014 2.912 0 5.902 0 9.89c4.428-.134 6.453-.245 8.068-1.822C9.645 6.453 9.756 4.428 9.89 0zM1.445 18.554C.014 17.09 0 14.098 0 10.111c4.428.133 6.453.244 8.068 1.821 1.577 1.615 1.688 3.64 1.821 8.068-4.121 0-6.978-.014-8.444-1.446zM10.11 20c.134-4.428.245-6.453 1.822-8.068 1.615-1.577 3.64-1.688 8.068-1.822 0 3.988-.014 6.979-1.446 8.444C17.088 19.987 14.232 20 10.111 20zm0-20c.134 4.428.245 6.453 1.822 8.068C13.547 9.645 15.572 9.756 20 9.89c0-3.988-.014-6.978-1.446-8.444C17.088.014 14.232 0 10.111 0z" fill="#1E1B1B"/><path d="M20 10.111v-.22c-4.428-.134-6.453-.245-8.068-1.822C10.355 6.454 10.244 4.429 10.11 0h-.22c-.134 4.428-.245 6.453-1.822 8.068C6.453 9.646 4.428 9.757 0 9.89v.22c4.428.134 6.453.245 8.068 1.822 1.577 1.615 1.688 3.64 1.821 8.068h.221c.134-4.428.245-6.453 1.822-8.068 1.615-1.577 3.64-1.688 8.068-1.822z" fill="#fff"/></g><defs><clipPath id="clip0"><path fill="#fff" d="M0 0h20v20H0z"/></clipPath></defs></svg>